<svg width="31" height="30" viewBox="0 0 31 30" fill="none" xmlns="http://www.w3.org/2000/svg">
<g clip-path="url(#clip0_113002_9723)">
<path d="M16.3591 29.3433C24.1689 29.3433 30.5 23.0122 30.5 15.2024C30.5 7.39261 24.1689 1.06152 16.3591 1.06152C8.54935 1.06152 2.21826 7.39261 2.21826 15.2024C2.21826 23.0122 8.54935 29.3433 16.3591 29.3433Z" fill="url(#paint0_linear_113002_9723)"/>
<path d="M26.316 7.76503C25.8308 7.40862 25.3163 7.08168 24.7772 6.78479C24.4802 6.24556 24.1533 5.73109 23.7969 5.24585C21.8175 2.55132 19.176 1.06738 16.3591 1.06738C13.5422 1.06738 10.9007 2.55132 8.92134 5.24585C8.56487 5.73109 8.23799 6.24562 7.94111 6.78479C7.40187 7.08168 6.8874 7.40856 6.40216 7.76503C3.70763 9.74444 2.22369 12.3859 2.22369 15.2028C2.22369 18.0197 3.70763 20.6612 6.40216 22.6406C6.8874 22.997 7.40193 23.3239 7.94111 23.6208C8.23799 24.16 8.56487 24.6745 8.92134 25.1597C10.9008 27.8543 13.5422 29.3382 16.3591 29.3382C19.176 29.3382 21.8175 27.8543 23.7969 25.1597C24.1533 24.6745 24.4802 24.16 24.7772 23.6207C25.3163 23.3239 25.8309 22.997 26.316 22.6405C29.0106 20.6611 30.4945 18.0197 30.4945 15.2027C30.4945 12.3858 29.0106 9.74444 26.316 7.76503ZM16.3591 28.6728C15.5828 28.6728 14.76 27.5164 14.1095 25.5432C14.8468 25.6299 15.5983 25.6749 16.3591 25.6749C17.1199 25.6749 17.8715 25.6299 18.6088 25.5432C17.9582 27.5164 17.1354 28.6728 16.3591 28.6728ZM16.3591 25.0094C15.518 25.0094 14.695 24.9525 13.8962 24.8446C13.4529 23.2771 13.131 21.3954 12.9468 19.3411C14.0495 19.4199 15.1936 19.4606 16.3591 19.4606C17.5246 19.4606 18.6687 19.4199 19.7714 19.3411C19.5873 21.3954 19.2654 23.277 18.8221 24.8446C18.0233 24.9525 17.2002 25.0094 16.3591 25.0094ZM16.3591 1.73285C17.1354 1.73285 17.9582 2.88927 18.6088 4.86244C17.8715 4.77568 17.1199 4.73074 16.3591 4.73074C15.5983 4.73074 14.8468 4.77568 14.1095 4.86244C14.76 2.88921 15.5828 1.73285 16.3591 1.73285ZM16.3591 5.39621C17.2002 5.39621 18.0233 5.45315 18.8221 5.56109C19.2654 7.12862 19.5873 9.01021 19.7714 11.0646C18.6687 10.9857 17.5246 10.9451 16.3591 10.9451C15.1936 10.9451 14.0496 10.9857 12.9468 11.0646C13.1309 9.01021 13.4528 7.12862 13.8962 5.56109C14.695 5.45315 15.518 5.39621 16.3591 5.39621ZM12.7668 15.2028C12.7668 14.0163 12.8095 12.8536 12.892 11.7357C14.0099 11.6532 15.1726 11.6104 16.3591 11.6104C17.5456 11.6104 18.7083 11.6532 19.8262 11.7357C19.9087 12.8536 19.9515 14.0163 19.9515 15.2028C19.9515 16.3893 19.9087 17.552 19.8262 18.6699C18.7083 18.7523 17.5456 18.7951 16.3591 18.7951C15.1726 18.7951 14.0099 18.7523 12.892 18.6699C12.8095 17.552 12.7668 16.3893 12.7668 15.2028ZM12.2208 18.6151C10.1665 18.431 8.28481 18.1091 6.71734 17.6657C6.60946 16.8669 6.55246 16.0439 6.55246 15.2028C6.55246 14.3617 6.6094 13.5387 6.71734 12.7399C8.28481 12.2966 10.1665 11.9747 12.2208 11.7905C12.142 12.8932 12.1013 14.0373 12.1013 15.2028C12.1013 16.3683 12.1419 17.5124 12.2208 18.6151ZM20.4975 11.7906C22.5518 11.9747 24.4334 12.2966 26.0009 12.7399C26.1088 13.5387 26.1658 14.3618 26.1658 15.2029C26.1658 16.0439 26.1089 16.867 26.0009 17.6658C24.4334 18.1091 22.5518 18.431 20.4975 18.6151C20.5763 17.5124 20.6169 16.3684 20.6169 15.2029C20.6169 14.0373 20.5763 12.8933 20.4975 11.7906ZM20.4441 11.1179C20.2689 9.10421 19.9634 7.24738 19.5429 5.67368C21.2782 5.98103 22.8829 6.53362 24.2838 7.27815C25.0283 8.67903 25.5809 10.2837 25.8883 12.019C24.3146 11.5986 22.4578 11.2931 20.4441 11.1179ZM12.2741 11.1179C10.2605 11.2931 8.40364 11.5986 6.82993 12.019C7.13728 10.2837 7.68987 8.67903 8.4344 7.27815C9.83528 6.53362 11.4399 5.98103 13.1752 5.67368C12.7548 7.24738 12.4494 9.10421 12.2741 11.1179ZM6.01869 17.4524C4.04552 16.8019 2.88911 15.9791 2.88911 15.2028C2.88911 14.4265 4.04546 13.6037 6.01869 12.9531C5.93199 13.6904 5.88699 14.442 5.88699 15.2028C5.88699 15.9636 5.93199 16.7151 6.01869 17.4524ZM12.2741 19.2878C12.4493 21.3014 12.7548 23.1583 13.1752 24.732C11.4399 24.4246 9.83528 23.872 8.4344 23.1275C7.68987 21.7266 7.13728 20.122 6.82993 18.3867C8.40369 18.8071 10.2605 19.1126 12.2741 19.2878ZM20.4441 19.2878C22.4578 19.1126 24.3146 18.8071 25.8883 18.3867C25.5809 20.122 25.0283 21.7266 24.2838 23.1275C22.8829 23.8721 21.2783 24.4246 19.5429 24.732C19.9634 23.1583 20.2689 21.3014 20.4441 19.2878ZM26.6995 12.9532C28.6727 13.6037 29.829 14.4265 29.829 15.2029C29.829 15.9791 28.6727 16.802 26.6995 17.4525C26.7862 16.7152 26.8312 15.9637 26.8312 15.2029C26.8312 14.442 26.7863 13.6905 26.6995 12.9532ZM29.6719 13.7042C29.0208 13.149 27.9887 12.6499 26.599 12.2228C26.357 10.6906 25.9287 9.23079 25.3291 7.89373C27.6043 9.37521 29.1866 11.4096 29.6719 13.7042ZM23.6683 6.23285C22.3312 5.63327 20.8714 5.20491 19.3392 4.96285C18.9121 3.57315 18.413 2.54103 17.8578 1.88991C20.1523 2.37532 22.1868 3.95762 23.6683 6.23285ZM14.8605 1.88997C14.3053 2.54109 13.8062 3.57321 13.3791 4.96291C11.8469 5.20491 10.387 5.63327 9.04999 6.23285C10.5315 3.95762 12.5659 2.37532 14.8605 1.88997ZM7.38911 7.89368C6.78958 9.23074 6.36116 10.6906 6.11916 12.2228C4.72946 12.6499 3.69734 13.149 3.04622 13.7042C3.53158 11.4096 5.11393 9.37521 7.38911 7.89368ZM3.04622 16.7014C3.69734 17.2567 4.72946 17.7558 6.11916 18.1829C6.36116 19.7151 6.78958 21.1749 7.38911 22.512C5.11393 21.0304 3.53158 18.996 3.04622 16.7014ZM9.04993 24.1728C10.387 24.7724 11.8468 25.2007 13.379 25.4427C13.8061 26.8324 14.3052 27.8646 14.8605 28.5157C12.5659 28.0303 10.5315 26.448 9.04993 24.1728ZM17.8577 28.5157C18.4129 27.8646 18.912 26.8324 19.3391 25.4427C20.8713 25.2007 22.3312 24.7723 23.6682 24.1728C22.1868 26.448 20.1523 28.0303 17.8577 28.5157ZM25.3291 22.512C25.9287 21.1749 26.357 19.7151 26.599 18.1829C27.9888 17.7559 29.0209 17.2567 29.6719 16.7015C29.1866 18.996 27.6043 21.0304 25.3291 22.512Z" fill="url(#paint1_linear_113002_9723)"/>
<path d="M11.4956 1.92054C7.95515 3.21736 5.07809 5.88954 3.51074 9.28995C3.32497 9.69295 3.23303 10.1328 3.23303 10.5766C3.23303 11.4031 3.56139 12.1958 4.1458 12.7802L4.4348 13.0692C5.72997 14.3644 7.48656 15.092 9.31821 15.092C9.59186 15.092 9.81368 14.8702 9.81368 14.5966C9.81368 14.3229 9.59186 14.1011 9.31821 14.1011H7.79521C7.0928 14.1011 6.52333 13.5317 6.52333 12.8292C6.52333 12.1268 7.09274 11.5574 7.79521 11.5574H8.98474C10.4111 11.5574 11.779 10.9908 12.7876 9.98218L14.6242 8.14554C15.0241 7.7456 15.5666 7.52089 16.1322 7.52089C16.9504 7.52089 17.6965 7.05277 18.0524 6.31601C18.4887 5.41307 17.8309 4.36465 16.8281 4.36465H14.4584C13.7617 4.36465 13.1969 3.79989 13.1969 3.10312C13.1968 2.22395 12.3213 1.61812 11.4956 1.92054Z" fill="url(#paint2_linear_113002_9723)"/>
<path d="M30.1708 12.1559C29.9755 11.2666 29.1804 10.6377 28.2701 10.6377H26.2766H25.2111C23.3999 10.6377 21.9318 12.1059 21.9318 13.917V14.316C21.9318 15.9068 23.2214 17.1963 24.8121 17.1963C25.6209 17.1963 26.2766 17.852 26.2766 18.6609V22.4852C26.2766 23.4818 27.5706 23.8788 28.1245 23.0503C29.2754 21.3285 30.0584 19.3396 30.3609 17.1963C30.4524 16.5453 30.5001 15.8793 30.5001 15.2028C30.5 14.1565 30.3863 13.1372 30.1708 12.1559Z" fill="url(#paint3_linear_113002_9723)"/>
<path d="M22.6848 2.55322C23.6385 4.45669 24.1761 6.60487 24.1761 8.87887C24.1761 16.6886 17.8451 23.0198 10.0352 23.0198C7.76124 23.0198 5.61307 22.4822 3.70959 21.5284C6.03136 26.1622 10.8234 29.3436 16.3591 29.3436C24.1689 29.3436 30.5 23.0126 30.5 15.2028C30.5 9.66699 27.3185 4.87499 22.6848 2.55322Z" fill="url(#paint4_linear_113002_9723)"/>
<path d="M23.4963 9.35928C22.7873 8.65028 21.0248 9.23664 17.6695 12.3705L15.7087 12.1289L15.0753 11.4754C14.7368 11.1369 14.188 11.1369 13.8494 11.4754C13.7685 11.5563 13.7078 11.6495 13.6658 11.7488L13.1615 11.2415C12.823 10.9029 12.2741 10.9029 11.9356 11.2415C11.8224 11.3547 11.748 11.4916 11.7104 11.6362L10.9521 11.5427C10.7713 11.5204 10.5637 11.6031 10.4069 11.76L9.1089 13.058C8.9719 13.195 8.97255 13.3923 9.11026 13.4516L13.0165 17.2689C11.8777 18.5937 10.8371 19.9038 10.0383 21.0328L8.09367 20.7688C8.01555 20.7582 7.92532 20.7937 7.8572 20.8618L7.25143 21.4676C7.13449 21.5845 7.12402 21.7523 7.22949 21.82L8.6899 23.2372C8.44473 23.7735 8.37714 24.1534 8.53967 24.3159L13.2162 28.9925C14.227 29.2219 15.2788 29.3435 16.3591 29.3435C23.793 29.3435 29.8868 23.607 30.4562 16.3193L23.4963 9.35928Z" fill="url(#paint5_linear_113002_9723)"/>
<path d="M12.5485 12.7214C13.0273 12.7214 13.4153 12.3333 13.4153 11.8546C13.4153 11.3759 13.0273 10.9878 12.5485 10.9878C12.0698 10.9878 11.6817 11.3759 11.6817 11.8546C11.6817 12.3333 12.0698 12.7214 12.5485 12.7214Z" fill="url(#paint6_linear_113002_9723)"/>
<path d="M12.5485 12.5778C12.9481 12.5778 13.272 12.2539 13.272 11.8543C13.272 11.4548 12.9481 11.1309 12.5485 11.1309C12.149 11.1309 11.8251 11.4548 11.8251 11.8543C11.8251 12.2539 12.149 12.5778 12.5485 12.5778Z" fill="url(#paint7_linear_113002_9723)"/>
<path d="M13.371 11.5801C13.3298 11.7039 13.26 11.8203 13.1615 11.9189C12.823 12.2574 12.2741 12.2574 11.9356 11.9189C11.837 11.8203 11.7672 11.7039 11.7261 11.5801C11.6258 11.8815 11.6957 12.2272 11.9356 12.4671C12.2741 12.8057 12.823 12.8057 13.1615 12.4671C13.4014 12.2272 13.4712 11.8816 13.371 11.5801Z" fill="url(#paint8_linear_113002_9723)"/>
<path d="M12.5485 12.7214C13.0273 12.7214 13.4153 12.3333 13.4153 11.8546C13.4153 11.3759 13.0273 10.9878 12.5485 10.9878C12.0698 10.9878 11.6817 11.3759 11.6817 11.8546C11.6817 12.3333 12.0698 12.7214 12.5485 12.7214Z" fill="url(#paint9_linear_113002_9723)"/>
<path d="M15.0753 12.7015C14.7368 13.04 14.1879 13.04 13.8494 12.7015C13.5109 12.3629 13.5109 11.8141 13.8494 11.4756C14.1879 11.137 14.7368 11.137 15.0753 11.4756C15.4138 11.8141 15.4138 12.363 15.0753 12.7015Z" fill="url(#paint10_linear_113002_9723)"/>
<path d="M14.4624 12.8117C14.8619 12.8117 15.1858 12.4878 15.1858 12.0882C15.1858 11.6887 14.8619 11.3647 14.4624 11.3647C14.0628 11.3647 13.7389 11.6887 13.7389 12.0882C13.7389 12.4878 14.0628 12.8117 14.4624 12.8117Z" fill="url(#paint11_linear_113002_9723)"/>
<path d="M15.2848 11.8145C15.2437 11.9383 15.1738 12.0547 15.0753 12.1533C14.7368 12.4918 14.1879 12.4918 13.8494 12.1533C13.7508 12.0547 13.6811 11.9383 13.6399 11.8145C13.5397 12.1159 13.6095 12.4616 13.8494 12.7015C14.1879 13.04 14.7368 13.04 15.0753 12.7015C15.3152 12.4615 15.3851 12.1159 15.2848 11.8145Z" fill="url(#paint12_linear_113002_9723)"/>
<path d="M15.0753 12.7015C14.7368 13.04 14.1879 13.04 13.8494 12.7015C13.5109 12.3629 13.5109 11.8141 13.8494 11.4756C14.1879 11.137 14.7368 11.137 15.0753 11.4756C15.4138 11.8141 15.4138 12.363 15.0753 12.7015Z" fill="url(#paint13_linear_113002_9723)"/>
<path d="M21.0012 21.1741C21.4799 21.1741 21.868 20.786 21.868 20.3073C21.868 19.8285 21.4799 19.4404 21.0012 19.4404C20.5224 19.4404 20.1343 19.8285 20.1343 20.3073C20.1343 20.786 20.5224 21.1741 21.0012 21.1741Z" fill="url(#paint14_linear_113002_9723)"/>
<path d="M21.0012 21.0304C21.4007 21.0304 21.7247 20.7065 21.7247 20.307C21.7247 19.9074 21.4007 19.5835 21.0012 19.5835C20.6016 19.5835 20.2777 19.9074 20.2777 20.307C20.2777 20.7065 20.6016 21.0304 21.0012 21.0304Z" fill="url(#paint15_linear_113002_9723)"/>
<path d="M21.2753 19.4847C21.1515 19.5259 21.0351 19.5957 20.9365 19.6942C20.5979 20.0328 20.5979 20.5816 20.9365 20.9201C21.0351 21.0187 21.1515 21.0885 21.2753 21.1297C20.9738 21.2299 20.6282 21.1601 20.3882 20.9201C20.0497 20.5816 20.0497 20.0328 20.3882 19.6942C20.6282 19.4543 20.9738 19.3845 21.2753 19.4847Z" fill="url(#paint16_linear_113002_9723)"/>
<path d="M21.0012 21.1741C21.4799 21.1741 21.868 20.786 21.868 20.3073C21.868 19.8285 21.4799 19.4404 21.0012 19.4404C20.5224 19.4404 20.1343 19.8285 20.1343 20.3073C20.1343 20.786 20.5224 21.1741 21.0012 21.1741Z" fill="url(#paint17_linear_113002_9723)"/>
<path d="M20.1543 17.7803C19.8158 18.1188 19.8158 18.6676 20.1543 19.0061C20.4928 19.3447 21.0416 19.3447 21.3802 19.0061C21.7187 18.6676 21.7187 18.1188 21.3802 17.7803C21.0416 17.4417 20.4928 17.4417 20.1543 17.7803Z" fill="url(#paint18_linear_113002_9723)"/>
<path d="M20.7672 19.1169C21.1668 19.1169 21.4907 18.793 21.4907 18.3934C21.4907 17.9938 21.1668 17.6699 20.7672 17.6699C20.3677 17.6699 20.0438 17.9938 20.0438 18.3934C20.0438 18.793 20.3677 19.1169 20.7672 19.1169Z" fill="url(#paint19_linear_113002_9723)"/>
<path d="M21.0413 17.5706C20.9175 17.6118 20.8011 17.6817 20.7025 17.7802C20.364 18.1187 20.364 18.6675 20.7025 19.0061C20.8011 19.1047 20.9175 19.1744 21.0413 19.2156C20.7399 19.3158 20.3942 19.246 20.1543 19.0061C19.8158 18.6675 19.8158 18.1187 20.1543 17.7802C20.3942 17.5402 20.7398 17.4705 21.0413 17.5706Z" fill="url(#paint20_linear_113002_9723)"/>
<path d="M20.1543 17.7803C19.8158 18.1188 19.8158 18.6676 20.1543 19.0061C20.4928 19.3447 21.0416 19.3447 21.3802 19.0061C21.7187 18.6676 21.7187 18.1188 21.3802 17.7803C21.0416 17.4417 20.4928 17.4417 20.1543 17.7803Z" fill="url(#paint21_linear_113002_9723)"/>
<path d="M7.22947 21.8201L9.08747 23.0139L10.9454 21.1559L8.09364 20.7689C8.01553 20.7583 7.92529 20.7938 7.85717 20.8619L7.25141 21.4677C7.13447 21.5846 7.12406 21.7523 7.22947 21.8201Z" fill="url(#paint22_linear_113002_9723)"/>
<path d="M7.43267 21.2863L7.25149 21.4674C7.13455 21.5844 7.12408 21.7521 7.22955 21.8199L9.08755 23.0137L10.5209 21.5803L7.66914 21.1933C7.59102 21.1827 7.50079 21.2182 7.43267 21.2863Z" fill="url(#paint23_linear_113002_9723)"/>
<path d="M11.0355 25.6261L9.84174 23.7681L11.6997 21.9102L12.0867 24.7619C12.0973 24.84 12.0618 24.9303 11.9937 24.9984L11.388 25.6042C11.271 25.7211 11.1033 25.7315 11.0355 25.6261Z" fill="url(#paint24_linear_113002_9723)"/>
<path d="M11.5691 25.4227L11.388 25.6039C11.271 25.7208 11.1033 25.7313 11.0355 25.6258L9.84174 23.7678L11.2751 22.3345L11.6621 25.1862C11.6727 25.2644 11.6372 25.3546 11.5691 25.4227Z" fill="url(#paint25_linear_113002_9723)"/>
<path d="M9.11024 13.4515L15.0227 15.9997L18.5441 12.4782L10.9521 11.5427C10.7712 11.5204 10.5637 11.6031 10.4069 11.7599L9.10889 13.0579C8.97195 13.1948 8.97259 13.3922 9.11024 13.4515Z" fill="url(#paint26_linear_113002_9723)"/>
<path d="M9.57028 12.5968L9.10887 13.0582C8.97187 13.1952 8.97252 13.3926 9.11022 13.4519L15.0227 16L17.7075 13.3152L10.1155 12.3796C9.93464 12.3572 9.72716 12.4399 9.57028 12.5968Z" fill="url(#paint27_linear_113002_9723)"/>
<path d="M12.9492 12.7288L10.1155 12.3796C9.93464 12.3573 9.72717 12.44 9.57028 12.5969L9.10887 13.0583C8.97187 13.1953 8.97252 13.3926 9.11022 13.4519L11.2877 14.3903L12.9492 12.7288Z" fill="url(#paint28_linear_113002_9723)"/>
<path d="M9.11023 13.4519L15.0227 16L16.2336 14.7891L9.67894 12.4883L9.10894 13.0583C8.97194 13.1952 8.97259 13.3926 9.11023 13.4519Z" fill="url(#paint29_linear_113002_9723)"/>
<path d="M19.4039 23.7454L16.8558 17.8329L20.3772 14.3115L21.3128 21.9036C21.3351 22.0844 21.2524 22.2919 21.0955 22.4488L19.7976 23.7467C19.6606 23.8837 19.4632 23.8831 19.4039 23.7454Z" fill="url(#paint30_linear_113002_9723)"/>
<path d="M20.259 23.2852L19.7975 23.7466C19.6605 23.8836 19.4632 23.8829 19.4039 23.7452L16.8558 17.8328L19.5407 15.1479L20.4762 22.74C20.4985 22.9208 20.4158 23.1283 20.259 23.2852Z" fill="url(#paint31_linear_113002_9723)"/>
<path d="M20.127 19.9062L20.4763 22.74C20.4986 22.9208 20.4159 23.1283 20.259 23.2852L19.7976 23.7466C19.6606 23.8836 19.4632 23.883 19.4039 23.7452L18.4655 21.5678L20.127 19.9062Z" fill="url(#paint32_linear_113002_9723)"/>
<path d="M19.4039 23.7455L16.8558 17.833L18.0668 16.6221L20.3675 23.1768L19.7975 23.7468C19.6606 23.8838 19.4632 23.8831 19.4039 23.7455Z" fill="url(#paint33_linear_113002_9723)"/>
<path d="M19.3429 16.3659C15.2128 20.4961 9.32753 25.1038 8.53965 24.3159C7.75177 23.5281 12.3595 17.6429 16.4896 13.5127C20.6198 9.38259 22.7083 8.57147 23.4962 9.35936C24.2841 10.1473 23.4731 12.2358 19.3429 16.3659Z" fill="url(#paint34_linear_113002_9723)"/>
<path d="M19.0368 16.2449C15.1083 20.1734 9.57487 24.6205 8.90487 23.9505C8.23487 23.2804 12.682 17.747 16.6104 13.8185C20.5389 9.89006 22.461 9.05424 23.131 9.72424C23.8011 10.3943 22.9652 12.3165 19.0368 16.2449Z" fill="url(#paint35_linear_113002_9723)"/>
<path d="M19.3429 16.3659C23.473 12.2357 24.2841 10.1473 23.4963 9.35938L8.53967 24.316C9.32761 25.1038 15.2128 20.4961 19.3429 16.3659Z" fill="url(#paint36_linear_113002_9723)"/>
<path d="M19.9785 10.8913C19.7255 11.1116 19.4601 11.3487 19.1818 11.6035C19.1106 11.6686 19.1171 11.7698 19.1941 11.7836C19.6703 11.8694 20.1001 12.078 20.4389 12.4168C20.7777 12.7555 20.9863 13.1855 21.072 13.6616C21.0859 13.7386 21.187 13.7451 21.2522 13.6739C21.507 13.3955 21.7441 13.1301 21.9643 12.8772C22.1142 12.705 22.1788 12.4884 22.1303 12.3136C22.0241 11.9316 21.8321 11.587 21.5504 11.3053C21.2686 11.0235 20.924 10.8315 20.5421 10.7254C20.3673 10.6768 20.1507 10.7414 19.9785 10.8913Z" fill="url(#paint37_linear_113002_9723)"/>
<path d="M21.9641 12.877C21.7706 13.0999 21.5635 13.3323 21.343 13.5746C21.313 13.6076 21.283 13.6405 21.2524 13.6741C21.1871 13.7452 21.0859 13.7388 21.0718 13.6617C20.9865 13.1852 20.7777 12.7552 20.4388 12.4164C20.4188 12.3964 20.3988 12.377 20.3783 12.3588C20.1377 12.1358 19.8553 11.9746 19.5459 11.8723C19.8241 11.6188 20.0883 11.3823 20.3406 11.1629C20.513 11.0129 20.7294 10.9482 20.9041 10.997C21.1118 11.0546 21.3083 11.1376 21.49 11.247C21.5106 11.2658 21.5306 11.2852 21.5506 11.3052C21.8324 11.587 22.0241 11.9317 22.13 12.3135C22.1788 12.4882 22.1141 12.7046 21.9641 12.877Z" fill="url(#paint38_linear_113002_9723)"/>
<path d="M21.072 13.6615C21.0859 13.7385 21.187 13.7449 21.2522 13.6738C21.507 13.3954 21.7441 13.13 21.9643 12.8771C22.1142 12.7049 22.1788 12.4883 22.1303 12.3135C22.0241 11.9315 21.8321 11.5869 21.5504 11.3052L20.4389 12.4166C20.7777 12.7554 20.9863 13.1854 21.072 13.6615Z" fill="url(#paint39_linear_113002_9723)"/>
<path d="M9.92767 23.0522L9.80338 22.9279C9.69944 22.824 9.73508 22.6241 9.88091 22.4936L12.0277 20.5718C12.122 20.4874 12.247 20.4741 12.3142 20.5414C12.3814 20.6086 12.3681 20.7336 12.2837 20.8279L10.3619 22.9747C10.2314 23.1204 10.0316 23.1561 9.92767 23.0522Z" fill="url(#paint40_linear_113002_9723)"/>
<path d="M2.37965 27.4441C2.25624 27.4441 2.13747 27.4365 2.02424 27.4217C1.865 27.4007 1.76065 27.2444 1.80359 27.0897L1.92135 26.6646C1.95535 26.542 2.07194 26.4605 2.19859 26.473C2.43647 26.4963 2.73153 26.4705 3.07053 26.3964C3.20759 26.3664 3.34429 26.4495 3.38077 26.585L3.49424 27.0064C3.53347 27.1522 3.442 27.2999 3.29459 27.3327C2.96159 27.4067 2.65477 27.4441 2.37965 27.4441ZM4.49047 26.669L4.32724 26.2649C4.27359 26.132 4.33577 25.9813 4.46735 25.9247C4.76324 25.7973 5.07647 25.6484 5.40318 25.48C5.53106 25.414 5.68853 25.4628 5.75624 25.5898L5.9613 25.9744C6.03047 26.1041 5.97971 26.2655 5.84906 26.3329C5.49724 26.5144 5.15877 26.6751 4.83788 26.813C4.70241 26.8712 4.54577 26.8059 4.49047 26.669ZM0.924471 26.332C0.775353 26.3951 0.603882 26.3105 0.565706 26.1531C0.522059 25.9728 0.5 25.7759 0.5 25.5644C0.5 25.342 0.524412 25.0985 0.572824 24.838C0.600412 24.6894 0.746235 24.5934 0.893235 24.6284L1.31771 24.7293C1.45329 24.7615 1.54071 24.8944 1.51576 25.0315C1.48035 25.2265 1.46247 25.405 1.46247 25.5643C1.46247 25.6751 1.47112 25.7762 1.48812 25.8667C1.51112 25.989 1.44718 26.1104 1.33265 26.159L0.924471 26.332ZM6.86459 25.4658L6.64247 25.0909C6.569 24.9668 6.60859 24.8068 6.73188 24.7321C7.02271 24.5559 7.32247 24.3668 7.62747 24.1672C7.7483 24.0882 7.91041 24.1218 7.99041 24.242L8.23183 24.6048C8.313 24.7268 8.27871 24.8913 8.15612 24.9715C7.84036 25.1782 7.52965 25.3741 7.22794 25.5568C7.10247 25.6328 6.93935 25.5921 6.86459 25.4658ZM9.45283 24.0833C9.33371 24.1684 9.16818 24.1408 9.08388 24.0211L9.45283 24.0833ZM1.61553 23.7789L1.20876 23.6224C1.07088 23.5693 1.00294 23.4135 1.05924 23.2769C1.19218 22.9544 1.34912 22.6132 1.52806 22.2578C1.59418 22.1264 1.75524 22.074 1.88565 22.1421L2.27206 22.3436C2.39959 22.4101 2.44988 22.567 2.38524 22.6954C2.22 23.0238 2.07541 23.3378 1.95318 23.6335C1.89853 23.7658 1.74906 23.8303 1.61553 23.7789ZM2.76353 21.4541L2.38706 21.2347C2.26047 21.1609 2.21824 20.9982 2.29324 20.8724C2.29565 20.8684 2.29806 20.8643 2.30041 20.8603C2.37547 20.7345 2.539 20.694 2.664 20.7703L3.036 20.9972C3.15929 21.0725 3.19877 21.2331 3.12471 21.3572C3.12382 21.3587 3.12288 21.3602 3.122 21.3617C3.04806 21.4857 2.88829 21.5268 2.76353 21.4541ZM23.9433 9.12825L23.5863 8.87837C23.4679 8.79549 23.4382 8.63248 23.5203 8.51354C23.7266 8.21454 23.9241 7.91913 24.1104 7.63107C24.1888 7.50984 24.3503 7.47501 24.4722 7.55237L24.8401 7.78596C24.9637 7.86449 24.9995 8.02854 24.9199 8.15154C24.7278 8.44878 24.5241 8.75331 24.3115 9.06143C24.2284 9.18196 24.0632 9.21219 23.9433 9.12825ZM25.3791 6.90266L25.003 6.68254C24.8787 6.60978 24.8359 6.45019 24.9073 6.32507C25.089 6.0066 25.2552 5.69778 25.4038 5.40243C25.4684 5.27407 25.6237 5.22172 25.7531 5.28425L26.1455 5.4739C26.2781 5.53796 26.3327 5.69772 26.2665 5.82925C26.1091 6.14231 25.9334 6.46901 25.7415 6.80519C25.6687 6.93266 25.5058 6.97678 25.3791 6.90266ZM26.5634 4.51772L26.1574 4.35954C26.024 4.3076 25.9575 4.15866 26.0057 4.02396C26.1292 3.67919 26.2175 3.36407 26.2697 3.08237C26.2948 2.94649 26.4213 2.85419 26.5586 2.87019L26.9922 2.9209C27.1428 2.93849 27.2481 3.07901 27.2213 3.22813C27.1594 3.57272 27.0542 3.95213 26.9071 4.3616C26.857 4.5009 26.7012 4.57143 26.5634 4.51772ZM22.9772 2.04272L22.7968 1.64584C22.7359 1.51184 22.7968 1.35331 22.9319 1.29501C23.3117 1.13137 23.6702 0.99825 24.0031 0.897191C24.1465 0.853662 24.2974 0.937191 24.3354 1.08225L24.446 1.50407C24.4817 1.64037 24.4042 1.78096 24.2695 1.82213C23.9773 1.91137 23.66 2.02954 23.3214 2.17519C23.1897 2.23184 23.0365 2.17325 22.9772 2.04272ZM26.4625 1.97531C26.3552 2.0166 26.2311 1.98525 26.1619 1.89337C26.146 1.87213 26.1288 1.85231 26.1102 1.83378C25.9679 1.69149 25.7327 1.61913 25.4111 1.61866H25.4021V0.65625V1.13749L25.4026 0.932309C25.403 0.777368 25.5368 0.654662 25.691 0.670368C26.1482 0.716956 26.5163 0.878838 26.7908 1.15319C26.8744 1.23678 26.948 1.33007 27.0111 1.43213C27.0974 1.57166 27.0331 1.75572 26.8801 1.8146L26.4625 1.97531Z" fill="url(#paint41_linear_113002_9723)"/>
<path d="M10.238 5.44673C10.692 5.44673 11.06 5.07871 11.06 4.62473C11.06 4.17076 10.692 3.80273 10.238 3.80273C9.78404 3.80273 9.41602 4.17076 9.41602 4.62473C9.41602 5.07871 9.78404 5.44673 10.238 5.44673Z" fill="url(#paint42_linear_113002_9723)"/>
<path d="M5.8585 11.5312C6.31248 11.5312 6.6805 11.1632 6.6805 10.7092C6.6805 10.2552 6.31248 9.88721 5.8585 9.88721C5.40452 9.88721 5.0365 10.2552 5.0365 10.7092C5.0365 11.1632 5.40452 11.5312 5.8585 11.5312Z" fill="url(#paint43_linear_113002_9723)"/>
<path d="M28.2715 13.6337C28.7255 13.6337 29.0935 13.2657 29.0935 12.8117C29.0935 12.3578 28.7255 11.9897 28.2715 11.9897C27.8175 11.9897 27.4495 12.3578 27.4495 12.8117C27.4495 13.2657 27.8175 13.6337 28.2715 13.6337Z" fill="url(#paint44_linear_113002_9723)"/>
</g>
<defs>
<linearGradient id="paint0_linear_113002_9723" x1="9.51132" y1="8.35464" x2="26.6505" y2="25.4938" gradientUnits="userSpaceOnUse">
<stop stop-color="#00AEFC"/>
<stop offset="1" stop-color="#3F3CEE"/>
</linearGradient>
<linearGradient id="paint1_linear_113002_9723" x1="18.5204" y1="30.7714" x2="13.4322" y2="-5.88085" gradientUnits="userSpaceOnUse">
<stop stop-color="#00AEFC" stop-opacity="0"/>
<stop offset="1" stop-color="#18CFFC"/>
</linearGradient>
<linearGradient id="paint2_linear_113002_9723" x1="11.9168" y1="9.53424" x2="34.197" y2="25.3431" gradientUnits="userSpaceOnUse">
<stop stop-color="#E5F3FF"/>
<stop offset="1" stop-color="#B3CCFF"/>
</linearGradient>
<linearGradient id="paint3_linear_113002_9723" x1="24.0791" y1="16.4089" x2="34.0636" y2="18.1655" gradientUnits="userSpaceOnUse">
<stop stop-color="#E5F3FF"/>
<stop offset="1" stop-color="#B3CCFF"/>
</linearGradient>
<linearGradient id="paint4_linear_113002_9723" x1="21.0283" y1="12.4079" x2="31.4224" y2="-7.89913" gradientUnits="userSpaceOnUse">
<stop stop-color="#3F3CEE" stop-opacity="0"/>
<stop offset="1" stop-color="#2F43BC"/>
</linearGradient>
<linearGradient id="paint5_linear_113002_9723" x1="22.5254" y1="23.345" x2="15.3287" y2="16.1483" gradientUnits="userSpaceOnUse">
<stop stop-color="#3F3CEE" stop-opacity="0"/>
<stop offset="1" stop-color="#2F43BC"/>
</linearGradient>
<linearGradient id="paint6_linear_113002_9723" x1="12.5578" y1="11.3885" x2="12.5578" y2="12.976" gradientUnits="userSpaceOnUse">
<stop stop-color="#F9F7FC"/>
<stop offset="1" stop-color="#F0DDFC"/>
</linearGradient>
<linearGradient id="paint7_linear_113002_9723" x1="12.5579" y1="12.2473" x2="12.5579" y2="11.138" gradientUnits="userSpaceOnUse">
<stop stop-color="#E9EDF5" stop-opacity="0"/>
<stop offset="1" stop-color="white"/>
</linearGradient>
<linearGradient id="paint8_linear_113002_9723" x1="12.3443" y1="12.1028" x2="14.7534" y2="11.3785" gradientUnits="userSpaceOnUse">
<stop stop-color="#F0DDFC" stop-opacity="0"/>
<stop offset="0.2889" stop-color="#C8B7E0" stop-opacity="0.289"/>
<stop offset="0.5915" stop-color="#A595C8" stop-opacity="0.592"/>
<stop offset="0.8395" stop-color="#8F81B8" stop-opacity="0.84"/>
<stop offset="1" stop-color="#8779B3"/>
</linearGradient>
<linearGradient id="paint9_linear_113002_9723" x1="12.6363" y1="11.4087" x2="12.4943" y2="12.2026" gradientUnits="userSpaceOnUse">
<stop stop-color="#F0DDFC" stop-opacity="0"/>
<stop offset="0.2889" stop-color="#C8B7E0" stop-opacity="0.289"/>
<stop offset="0.5915" stop-color="#A595C8" stop-opacity="0.592"/>
<stop offset="0.8395" stop-color="#8F81B8" stop-opacity="0.84"/>
<stop offset="1" stop-color="#8779B3"/>
</linearGradient>
<linearGradient id="paint10_linear_113002_9723" x1="14.4714" y1="11.6224" x2="14.4714" y2="13.2098" gradientUnits="userSpaceOnUse">
<stop stop-color="#F9F7FC"/>
<stop offset="1" stop-color="#F0DDFC"/>
</linearGradient>
<linearGradient id="paint11_linear_113002_9723" x1="14.4714" y1="12.4811" x2="14.4714" y2="11.3719" gradientUnits="userSpaceOnUse">
<stop stop-color="#E9EDF5" stop-opacity="0"/>
<stop offset="1" stop-color="white"/>
</linearGradient>
<linearGradient id="paint12_linear_113002_9723" x1="14.2578" y1="12.3371" x2="16.667" y2="11.6128" gradientUnits="userSpaceOnUse">
<stop stop-color="#F0DDFC" stop-opacity="0"/>
<stop offset="0.2889" stop-color="#C8B7E0" stop-opacity="0.289"/>
<stop offset="0.5915" stop-color="#A595C8" stop-opacity="0.592"/>
<stop offset="0.8395" stop-color="#8F81B8" stop-opacity="0.84"/>
<stop offset="1" stop-color="#8779B3"/>
</linearGradient>
<linearGradient id="paint13_linear_113002_9723" x1="14.5498" y1="11.6425" x2="14.4078" y2="12.4365" gradientUnits="userSpaceOnUse">
<stop stop-color="#F0DDFC" stop-opacity="0"/>
<stop offset="0.2889" stop-color="#C8B7E0" stop-opacity="0.289"/>
<stop offset="0.5915" stop-color="#A595C8" stop-opacity="0.592"/>
<stop offset="0.8395" stop-color="#8F81B8" stop-opacity="0.84"/>
<stop offset="1" stop-color="#8779B3"/>
</linearGradient>
<linearGradient id="paint14_linear_113002_9723" x1="21.4693" y1="20.2999" x2="19.8818" y2="20.2999" gradientUnits="userSpaceOnUse">
<stop stop-color="#F9F7FC"/>
<stop offset="1" stop-color="#F0DDFC"/>
</linearGradient>
<linearGradient id="paint15_linear_113002_9723" x1="20.6103" y1="20.2996" x2="21.7195" y2="20.2996" gradientUnits="userSpaceOnUse">
<stop stop-color="#E9EDF5" stop-opacity="0"/>
<stop offset="1" stop-color="white"/>
</linearGradient>
<linearGradient id="paint16_linear_113002_9723" x1="20.7546" y1="20.5135" x2="21.4789" y2="18.1043" gradientUnits="userSpaceOnUse">
<stop stop-color="#F0DDFC" stop-opacity="0"/>
<stop offset="0.2889" stop-color="#C8B7E0" stop-opacity="0.289"/>
<stop offset="0.5915" stop-color="#A595C8" stop-opacity="0.592"/>
<stop offset="0.8395" stop-color="#8F81B8" stop-opacity="0.84"/>
<stop offset="1" stop-color="#8779B3"/>
</linearGradient>
<linearGradient id="paint17_linear_113002_9723" x1="21.4491" y1="20.2215" x2="20.6552" y2="20.3635" gradientUnits="userSpaceOnUse">
<stop stop-color="#F0DDFC" stop-opacity="0"/>
<stop offset="0.2889" stop-color="#C8B7E0" stop-opacity="0.289"/>
<stop offset="0.5915" stop-color="#A595C8" stop-opacity="0.592"/>
<stop offset="0.8395" stop-color="#8F81B8" stop-opacity="0.84"/>
<stop offset="1" stop-color="#8779B3"/>
</linearGradient>
<linearGradient id="paint18_linear_113002_9723" x1="21.2354" y1="18.3861" x2="19.6479" y2="18.3861" gradientUnits="userSpaceOnUse">
<stop stop-color="#F9F7FC"/>
<stop offset="1" stop-color="#F0DDFC"/>
</linearGradient>
<linearGradient id="paint19_linear_113002_9723" x1="20.3764" y1="18.3863" x2="21.4856" y2="18.3863" gradientUnits="userSpaceOnUse">
<stop stop-color="#E9EDF5" stop-opacity="0"/>
<stop offset="1" stop-color="white"/>
</linearGradient>
<linearGradient id="paint20_linear_113002_9723" x1="20.5207" y1="18.5997" x2="21.245" y2="16.1905" gradientUnits="userSpaceOnUse">
<stop stop-color="#F0DDFC" stop-opacity="0"/>
<stop offset="0.2889" stop-color="#C8B7E0" stop-opacity="0.289"/>
<stop offset="0.5915" stop-color="#A595C8" stop-opacity="0.592"/>
<stop offset="0.8395" stop-color="#8F81B8" stop-opacity="0.84"/>
<stop offset="1" stop-color="#8779B3"/>
</linearGradient>
<linearGradient id="paint21_linear_113002_9723" x1="21.2152" y1="18.3077" x2="20.4212" y2="18.4497" gradientUnits="userSpaceOnUse">
<stop stop-color="#F0DDFC" stop-opacity="0"/>
<stop offset="0.2889" stop-color="#C8B7E0" stop-opacity="0.289"/>
<stop offset="0.5915" stop-color="#A595C8" stop-opacity="0.592"/>
<stop offset="0.8395" stop-color="#8F81B8" stop-opacity="0.84"/>
<stop offset="1" stop-color="#8779B3"/>
</linearGradient>
<linearGradient id="paint22_linear_113002_9723" x1="9.08242" y1="21.2546" x2="8.87884" y2="22.6155" gradientUnits="userSpaceOnUse">
<stop stop-color="#FFDA45"/>
<stop offset="0.3043" stop-color="#FFCE3E"/>
<stop offset="0.8558" stop-color="#FFAE2B"/>
<stop offset="1" stop-color="#FFA425"/>
</linearGradient>
<linearGradient id="paint23_linear_113002_9723" x1="8.61375" y1="21.8033" x2="10.6337" y2="19.7397" gradientUnits="userSpaceOnUse">
<stop stop-color="#FFDA45" stop-opacity="0"/>
<stop offset="1" stop-color="#B53759"/>
</linearGradient>
<linearGradient id="paint24_linear_113002_9723" x1="11.604" y1="23.7761" x2="10.2431" y2="23.9797" gradientUnits="userSpaceOnUse">
<stop stop-color="#FFDA45"/>
<stop offset="0.3043" stop-color="#FFCE3E"/>
<stop offset="0.8558" stop-color="#FFAE2B"/>
<stop offset="1" stop-color="#FFA425"/>
</linearGradient>
<linearGradient id="paint25_linear_113002_9723" x1="11.055" y1="24.2446" x2="13.1186" y2="22.2246" gradientUnits="userSpaceOnUse">
<stop stop-color="#FFDA45" stop-opacity="0"/>
<stop offset="1" stop-color="#B53759"/>
</linearGradient>
<linearGradient id="paint26_linear_113002_9723" x1="14.0895" y1="12.3247" x2="11.9777" y2="15.8546" gradientUnits="userSpaceOnUse">
<stop stop-color="#FFDA45"/>
<stop offset="0.3043" stop-color="#FFCE3E"/>
<stop offset="0.8558" stop-color="#FFAE2B"/>
<stop offset="1" stop-color="#FFA425"/>
</linearGradient>
<linearGradient id="paint27_linear_113002_9723" x1="12.4405" y1="14.6283" x2="16.7816" y2="8.15866" gradientUnits="userSpaceOnUse">
<stop stop-color="#FFDA45" stop-opacity="0"/>
<stop offset="1" stop-color="#B53759"/>
</linearGradient>
<linearGradient id="paint28_linear_113002_9723" x1="11.3645" y1="13.5067" x2="13.4623" y2="16.1375" gradientUnits="userSpaceOnUse">
<stop stop-color="#F0DDFC" stop-opacity="0"/>
<stop offset="0.2889" stop-color="#C8B7E0" stop-opacity="0.289"/>
<stop offset="0.5915" stop-color="#A595C8" stop-opacity="0.592"/>
<stop offset="0.8395" stop-color="#8F81B8" stop-opacity="0.84"/>
<stop offset="1" stop-color="#8779B3"/>
</linearGradient>
<linearGradient id="paint29_linear_113002_9723" x1="12.5359" y1="14.1675" x2="11.6589" y2="15.7961" gradientUnits="userSpaceOnUse">
<stop stop-color="#FFDA45" stop-opacity="0"/>
<stop offset="1" stop-color="#B53759"/>
</linearGradient>
<linearGradient id="paint30_linear_113002_9723" x1="20.5327" y1="18.7681" x2="17.0028" y2="20.88" gradientUnits="userSpaceOnUse">
<stop stop-color="#FFDA45"/>
<stop offset="0.3043" stop-color="#FFCE3E"/>
<stop offset="0.8558" stop-color="#FFAE2B"/>
<stop offset="1" stop-color="#FFA425"/>
</linearGradient>
<linearGradient id="paint31_linear_113002_9723" x1="18.654" y1="20.1322" x2="25.1236" y2="15.791" gradientUnits="userSpaceOnUse">
<stop stop-color="#FFDA45" stop-opacity="0"/>
<stop offset="1" stop-color="#B53759"/>
</linearGradient>
<linearGradient id="paint32_linear_113002_9723" x1="19.5979" y1="21.6898" x2="16.9671" y2="19.5921" gradientUnits="userSpaceOnUse">
<stop stop-color="#FFDA45" stop-opacity="0"/>
<stop offset="1" stop-color="#B53759"/>
</linearGradient>
<linearGradient id="paint33_linear_113002_9723" x1="18.6903" y1="20.3218" x2="17.0617" y2="21.1988" gradientUnits="userSpaceOnUse">
<stop stop-color="#FFDA45" stop-opacity="0"/>
<stop offset="1" stop-color="#B53759"/>
</linearGradient>
<linearGradient id="paint34_linear_113002_9723" x1="15.4405" y1="16.2619" x2="17.2258" y2="18.0472" gradientUnits="userSpaceOnUse">
<stop stop-color="#E5F3FF"/>
<stop offset="1" stop-color="#B3CCFF"/>
</linearGradient>
<linearGradient id="paint35_linear_113002_9723" x1="16.6776" y1="17.4272" x2="14.1372" y2="15.1589" gradientUnits="userSpaceOnUse">
<stop stop-color="#E5F3FF" stop-opacity="0"/>
<stop offset="1" stop-color="white"/>
</linearGradient>
<linearGradient id="paint36_linear_113002_9723" x1="15.8911" y1="19.1347" x2="19.8442" y2="-8.46065" gradientUnits="userSpaceOnUse">
<stop stop-color="#B3CCFF" stop-opacity="0"/>
<stop offset="1" stop-color="#9FB0CB"/>
</linearGradient>
<linearGradient id="paint37_linear_113002_9723" x1="20.1235" y1="11.1074" x2="21.6783" y2="13.5506" gradientUnits="userSpaceOnUse">
<stop stop-color="#8B788A"/>
<stop offset="1" stop-color="#6E566E"/>
</linearGradient>
<linearGradient id="paint38_linear_113002_9723" x1="20.9082" y1="12.3359" x2="20.4964" y2="10.9094" gradientUnits="userSpaceOnUse">
<stop stop-color="#8B788A" stop-opacity="0"/>
<stop offset="1" stop-color="#9E8C92"/>
</linearGradient>
<linearGradient id="paint39_linear_113002_9723" x1="21.2275" y1="12.6589" x2="22.2046" y2="10.1444" gradientUnits="userSpaceOnUse">
<stop stop-color="#555A66" stop-opacity="0"/>
<stop offset="1" stop-color="#555A66"/>
</linearGradient>
<linearGradient id="paint40_linear_113002_9723" x1="11.0424" y1="21.7184" x2="11.2541" y2="21.9301" gradientUnits="userSpaceOnUse">
<stop stop-color="#E5F3FF"/>
<stop offset="1" stop-color="#B3CCFF"/>
</linearGradient>
<linearGradient id="paint41_linear_113002_9723" x1="0.5" y1="14.0501" x2="27.2254" y2="14.0501" gradientUnits="userSpaceOnUse">
<stop stop-color="#FF7044"/>
<stop offset="1" stop-color="#F92814"/>
</linearGradient>
<linearGradient id="paint42_linear_113002_9723" x1="10.1743" y1="4.56109" x2="11.0797" y2="5.46644" gradientUnits="userSpaceOnUse">
<stop stop-color="#FF7044"/>
<stop offset="1" stop-color="#F92814"/>
</linearGradient>
<linearGradient id="paint43_linear_113002_9723" x1="5.51079" y1="10.3615" x2="6.4982" y2="11.349" gradientUnits="userSpaceOnUse">
<stop stop-color="#92F37F"/>
<stop offset="1" stop-color="#4AB272"/>
</linearGradient>
<linearGradient id="paint44_linear_113002_9723" x1="27.7642" y1="12.3044" x2="29.1808" y2="13.721" gradientUnits="userSpaceOnUse">
<stop stop-color="#92F37F"/>
<stop offset="1" stop-color="#4AB272"/>
</linearGradient>
<clipPath id="clip0_113002_9723">
<rect width="30" height="30" fill="white" transform="translate(0.5)"/>
</clipPath>
</defs>
</svg>
