<svg width="20" height="20" viewBox="0 0 20 20" fill="none" xmlns="http://www.w3.org/2000/svg">
<path d="M1.90833 6.48335V14.5917C1.90833 16.175 3.03333 16.825 4.39999 16.0417L6.35833 14.925C6.78333 14.6834 7.49166 14.6584 7.93333 14.8834L12.3083 17.075C12.75 17.2917 13.4583 17.275 13.8833 17.0334L17.4917 14.9667C17.95 14.7 18.3333 14.05 18.3333 13.5167V5.40835C18.3333 3.82502 17.2083 3.17502 15.8417 3.95835L13.8833 5.07502C13.4583 5.31669 12.75 5.34169 12.3083 5.11669L7.93333 2.93335C7.49166 2.71669 6.78333 2.73335 6.35833 2.97502L2.74999 5.04169C2.28333 5.30835 1.90833 5.95835 1.90833 6.48335Z" stroke="#292D32" stroke-width="1.5" stroke-linecap="round" stroke-linejoin="round"/>
<path opacity="0.4" d="M7.1333 3.33331V14.1666" stroke="#292D32" stroke-width="1.5" stroke-linecap="round" stroke-linejoin="round"/>
<path opacity="0.4" d="M13.1083 5.51666V16.6667" stroke="#292D32" stroke-width="1.5" stroke-linecap="round" stroke-linejoin="round"/>
</svg>
